<?xml version="1.0" encoding="UTF-8" standalone="no"?>
<!DOCTYPE svg PUBLIC "-//W3C//DTD SVG 1.1//EN"
 "http://www.w3.org/Graphics/SVG/1.1/DTD/svg11.dtd">
<!-- Generated by graphviz version 2.40.1 (20161225.0304)
 -->
<!-- Title: %0 Pages: 1 -->
<svg width="300pt" height="44pt"
 viewBox="0.00 0.00 299.97 44.00" xmlns="http://www.w3.org/2000/svg" xmlns:xlink="http://www.w3.org/1999/xlink">
<g id="graph0" class="graph" transform="scale(1 1) rotate(0) translate(4 40)">
<title>%0</title>
<polygon fill="#ffffff" stroke="transparent" points="-4,4 -4,-40 295.9727,-40 295.9727,4 -4,4"/>
<!-- sources -->
<g id="node1" class="node">
<title>sources</title>
<ellipse fill="none" stroke="#000000" cx="39.9929" cy="-18" rx="39.9857" ry="18"/>
<text text-anchor="middle" x="39.9929" y="-13.8" font-family="Times,serif" font-size="14.00" fill="#000000">sources</text>
</g>
<!-- component -->
<g id="node2" class="node">
<title>component</title>
<polygon fill="none" stroke="#000000" points="194.3016,-36 115.8802,-36 115.8802,0 194.3016,0 194.3016,-36"/>
<text text-anchor="middle" x="155.0909" y="-13.8" font-family="Times,serif" font-size="14.00" fill="#000000">component</text>
</g>
<!-- sources&#45;&gt;component -->
<g id="edge1" class="edge">
<title>sources&#45;&gt;component</title>
<path fill="none" stroke="#000000" d="M80.2486,-18C88.4521,-18 97.1725,-18 105.6531,-18"/>
<polygon fill="#000000" stroke="#000000" points="105.8278,-21.5001 115.8277,-18 105.8277,-14.5001 105.8278,-21.5001"/>
</g>
<!-- sinks -->
<g id="node3" class="node">
<title>sinks</title>
<ellipse fill="none" stroke="#000000" cx="261.0844" cy="-18" rx="30.777" ry="18"/>
<text text-anchor="middle" x="261.0844" y="-13.8" font-family="Times,serif" font-size="14.00" fill="#000000">sinks</text>
</g>
<!-- component&#45;&gt;sinks -->
<g id="edge2" class="edge">
<title>component&#45;&gt;sinks</title>
<path fill="none" stroke="#000000" d="M194.2578,-18C202.6429,-18 211.5246,-18 219.9804,-18"/>
<polygon fill="#000000" stroke="#000000" points="220.0214,-21.5001 230.0214,-18 220.0213,-14.5001 220.0214,-21.5001"/>
</g>
</g>
</svg>
