<?xml version="1.0" encoding="UTF-8" standalone="no"?>
<!DOCTYPE svg PUBLIC "-//W3C//DTD SVG 1.1//EN"
 "http://www.w3.org/Graphics/SVG/1.1/DTD/svg11.dtd">
<!-- Generated by graphviz version 2.40.1 (20161225.0304)
 -->
<!-- Title: %0 Pages: 1 -->
<svg width="277pt" height="98pt"
 viewBox="0.00 0.00 276.63 98.00" xmlns="http://www.w3.org/2000/svg" xmlns:xlink="http://www.w3.org/1999/xlink">
<g id="graph0" class="graph" transform="scale(1 1) rotate(0) translate(4 94)">
<title>%0</title>
<polygon fill="#ffffff" stroke="transparent" points="-4,4 -4,-94 272.6333,-94 272.6333,4 -4,4"/>
<!-- drivers -->
<g id="node1" class="node">
<title>drivers</title>
<polygon fill="none" stroke="#000000" points="170.7924,-90 116.0501,-90 116.0501,-54 170.7924,-54 170.7924,-90"/>
<text text-anchor="middle" x="143.4212" y="-67.8" font-family="Times,serif" font-size="14.00" fill="#000000">drivers</text>
</g>
<!-- sources -->
<g id="node3" class="node">
<title>sources</title>
<ellipse fill="none" stroke="#000000" cx="39.9929" cy="-45" rx="39.9857" ry="18"/>
<text text-anchor="middle" x="39.9929" y="-40.8" font-family="Times,serif" font-size="14.00" fill="#000000">sources</text>
</g>
<!-- drivers&#45;&gt;sources -->
<g id="edge1" class="edge">
<title>drivers:w&#45;&gt;sources:n</title>
<path fill="none" stroke="#000000" d="M116.4212,-72C86.3601,-72 50.1017,-91.4686 41.7612,-72.9622"/>
<polygon fill="#000000" stroke="#000000" points="45.1868,-72.2344 39.9929,-63 38.2945,-73.4578 45.1868,-72.2344"/>
</g>
<!-- app -->
<g id="node2" class="node">
<title>app</title>
<polygon fill="none" stroke="#000000" points="170.4212,-36 116.4212,-36 116.4212,0 170.4212,0 170.4212,-36"/>
<text text-anchor="middle" x="143.4212" y="-13.8" font-family="Times,serif" font-size="14.00" fill="#000000">app</text>
</g>
<!-- sinks -->
<g id="node4" class="node">
<title>sinks</title>
<ellipse fill="none" stroke="#000000" cx="237.745" cy="-45" rx="30.777" ry="18"/>
<text text-anchor="middle" x="237.745" y="-40.8" font-family="Times,serif" font-size="14.00" fill="#000000">sinks</text>
</g>
<!-- app&#45;&gt;sinks -->
<g id="edge2" class="edge">
<title>app:e&#45;&gt;sinks:s</title>
<path fill="none" stroke="#000000" d="M170.4212,-18C196.3639,-18 227.4379,-2.3522 235.6645,-17.1106"/>
<polygon fill="#000000" stroke="#000000" points="232.2612,-17.9348 237.745,-27 239.1112,-16.4936 232.2612,-17.9348"/>
</g>
<!-- sources&#45;&gt;app -->
<g id="edge4" class="edge">
<title>sources:s&#45;&gt;app:w</title>
<path fill="none" stroke="#000000" d="M39.9929,-27C39.9929,3.8627 74.3739,-13.6441 106.2181,-17.3577"/>
<polygon fill="#000000" stroke="#000000" points="106.2211,-20.8648 116.4212,-18 106.6609,-13.8786 106.2211,-20.8648"/>
</g>
<!-- sinks&#45;&gt;drivers -->
<g id="edge3" class="edge">
<title>sinks:n&#45;&gt;drivers:e</title>
<path fill="none" stroke="#000000" d="M237.745,-63C237.745,-89.8861 208.2883,-76.0202 180.5183,-72.6655"/>
<polygon fill="#000000" stroke="#000000" points="180.6298,-69.1653 170.4212,-72 180.1694,-76.1502 180.6298,-69.1653"/>
</g>
</g>
</svg>
