<?xml version="1.0" encoding="UTF-8" standalone="no"?>
<!DOCTYPE svg PUBLIC "-//W3C//DTD SVG 1.1//EN"
 "http://www.w3.org/Graphics/SVG/1.1/DTD/svg11.dtd">
<!-- Generated by graphviz version 2.40.1 (20161225.0304)
 -->
<!-- Title: %0 Pages: 1 -->
<svg width="396pt" height="201pt"
 viewBox="0.00 0.00 395.65 201.42" xmlns="http://www.w3.org/2000/svg" xmlns:xlink="http://www.w3.org/1999/xlink">
<g id="graph0" class="graph" transform="scale(1 1) rotate(0) translate(4 197.4156)">
<title>%0</title>
<polygon fill="#ffffff" stroke="transparent" points="-4,4 -4,-197.4156 391.6484,-197.4156 391.6484,4 -4,4"/>
<!-- App -->
<g id="node1" class="node">
<title>App</title>
<ellipse fill="none" stroke="#000000" cx="27.6648" cy="-72" rx="27.8306" ry="18"/>
<text text-anchor="middle" x="27.6648" y="-67.8" font-family="Times,serif" font-size="14.00" fill="#000000">App</text>
</g>
<!-- Form -->
<g id="node2" class="node">
<title>Form</title>
<ellipse fill="none" stroke="#000000" cx="166.1889" cy="-126" rx="31.9205" ry="18"/>
<text text-anchor="middle" x="166.1889" y="-121.8" font-family="Times,serif" font-size="14.00" fill="#000000">Form</text>
</g>
<!-- App&#45;&gt;Form -->
<g id="edge1" class="edge">
<title>App&#45;&gt;Form</title>
<path fill="none" stroke="#000000" d="M50.8225,-82.1827C62.8422,-87.3758 77.8048,-93.6977 91.3296,-99 103.4889,-103.767 116.8757,-108.695 128.9254,-113.0152"/>
<polygon fill="#000000" stroke="#000000" points="128.0817,-116.4298 138.6764,-116.4842 130.4281,-109.8348 128.0817,-116.4298"/>
</g>
<!-- GetCountryData -->
<g id="node3" class="node">
<title>GetCountryData</title>
<ellipse fill="none" stroke="#000000" cx="166.1889" cy="-72" rx="74.7188" ry="18"/>
<text text-anchor="middle" x="166.1889" y="-67.8" font-family="Times,serif" font-size="14.00" fill="#000000">GetCountryData</text>
</g>
<!-- App&#45;&gt;GetCountryData -->
<g id="edge2" class="edge">
<title>App&#45;&gt;GetCountryData</title>
<path fill="none" stroke="#000000" d="M55.3643,-72C63.0759,-72 71.8784,-72 81.0749,-72"/>
<polygon fill="#000000" stroke="#000000" points="81.1758,-75.5001 91.1758,-72 81.1757,-68.5001 81.1758,-75.5001"/>
</g>
<!-- Stats -->
<g id="node4" class="node">
<title>Stats</title>
<ellipse fill="none" stroke="#000000" cx="166.1889" cy="-18" rx="29.63" ry="18"/>
<text text-anchor="middle" x="166.1889" y="-13.8" font-family="Times,serif" font-size="14.00" fill="#000000">Stats</text>
</g>
<!-- App&#45;&gt;Stats -->
<g id="edge3" class="edge">
<title>App&#45;&gt;Stats</title>
<path fill="none" stroke="#000000" d="M50.8225,-61.8173C62.8422,-56.6242 77.8048,-50.3023 91.3296,-45 104.0165,-40.0262 118.0396,-34.877 130.4861,-30.426"/>
<polygon fill="#000000" stroke="#000000" points="131.8211,-33.6662 140.0743,-27.0227 129.4795,-27.0694 131.8211,-33.6662"/>
</g>
<!-- AssignableInput -->
<g id="node5" class="node">
<title>AssignableInput</title>
<ellipse fill="none" stroke="#000000" cx="332.3482" cy="-164" rx="55.101" ry="29.3315"/>
<text text-anchor="middle" x="332.3482" y="-168.2" font-family="Times,serif" font-size="14.00" fill="#000000">Assignable</text>
<text text-anchor="middle" x="332.3482" y="-151.4" font-family="Times,serif" font-size="14.00" fill="#000000">Input</text>
</g>
<!-- Form&#45;&gt;AssignableInput -->
<g id="edge4" class="edge">
<title>Form&#45;&gt;AssignableInput</title>
<path fill="none" stroke="#000000" d="M195.8948,-132.7936C216.8263,-137.5806 245.5963,-144.1602 271.3241,-150.044"/>
<polygon fill="#000000" stroke="#000000" points="270.8548,-153.527 281.3834,-152.3445 272.4154,-146.7032 270.8548,-153.527"/>
</g>
<!-- ConfirmButton -->
<g id="node6" class="node">
<title>ConfirmButton</title>
<ellipse fill="none" stroke="#000000" cx="332.3482" cy="-87" rx="44.7167" ry="29.3315"/>
<text text-anchor="middle" x="332.3482" y="-91.2" font-family="Times,serif" font-size="14.00" fill="#000000">Confirm</text>
<text text-anchor="middle" x="332.3482" y="-74.4" font-family="Times,serif" font-size="14.00" fill="#000000">Button</text>
</g>
<!-- Form&#45;&gt;ConfirmButton -->
<g id="edge5" class="edge">
<title>Form&#45;&gt;ConfirmButton</title>
<path fill="none" stroke="#000000" d="M195.8948,-119.0276C219.2562,-113.5443 252.3817,-105.7693 280.1443,-99.253"/>
<polygon fill="#000000" stroke="#000000" points="281.1663,-102.6083 290.1019,-96.9158 279.5667,-95.7935 281.1663,-102.6083"/>
</g>
</g>
</svg>
