<?xml version="1.0" encoding="UTF-8" standalone="no"?>
<!DOCTYPE svg PUBLIC "-//W3C//DTD SVG 1.1//EN"
 "http://www.w3.org/Graphics/SVG/1.1/DTD/svg11.dtd">
<!-- Generated by graphviz version 2.40.1 (20161225.0304)
 -->
<!-- Title: %0 Pages: 1 -->
<svg width="444pt" height="209pt"
 viewBox="0.00 0.00 443.99 209.00" xmlns="http://www.w3.org/2000/svg" xmlns:xlink="http://www.w3.org/1999/xlink">
<g id="graph0" class="graph" transform="scale(1 1) rotate(0) translate(4 205)">
<title>%0</title>
<polygon fill="#ffffff" stroke="transparent" points="-4,4 -4,-205 439.9947,-205 439.9947,4 -4,4"/>
<g id="clust1" class="cluster">
<title>cluster_lens</title>
<polygon fill="#ffffff" stroke="#000000" points="8,-8 8,-193 427.9947,-193 427.9947,-8 8,-8"/>
<text text-anchor="middle" x="217.9974" y="-176.4" font-family="Times,serif" font-size="14.00" fill="#000000">Lens</text>
</g>
<!-- parentState -->
<g id="node1" class="node">
<title>parentState</title>
<ellipse fill="none" stroke="#000000" cx="83.8966" cy="-142" rx="54.4488" ry="18"/>
<text text-anchor="middle" x="83.8966" y="-137.8" font-family="Times,serif" font-size="14.00" fill="#000000">parentState</text>
</g>
<!-- getter -->
<g id="node2" class="node">
<title>getter</title>
<polygon fill="none" stroke="#000000" points="241.7932,-160 187.7932,-160 187.7932,-124 241.7932,-124 241.7932,-160"/>
<text text-anchor="middle" x="214.7932" y="-137.8" font-family="Times,serif" font-size="14.00" fill="#000000">getter</text>
</g>
<!-- parentState&#45;&gt;getter -->
<g id="edge1" class="edge">
<title>parentState&#45;&gt;getter</title>
<path fill="none" stroke="#000000" d="M138.6501,-142C151.7628,-142 165.4641,-142 177.5713,-142"/>
<polygon fill="#000000" stroke="#000000" points="177.7458,-145.5001 187.7458,-142 177.7457,-138.5001 177.7458,-145.5001"/>
</g>
<!-- childState -->
<g id="node3" class="node">
<title>childState</title>
<ellipse fill="none" stroke="#000000" cx="348.894" cy="-142" rx="49.8136" ry="18"/>
<text text-anchor="middle" x="348.894" y="-137.8" font-family="Times,serif" font-size="14.00" fill="#000000">childState</text>
</g>
<!-- getter&#45;&gt;childState -->
<g id="edge2" class="edge">
<title>getter&#45;&gt;childState</title>
<path fill="none" stroke="#000000" d="M241.9305,-142C255.4935,-142 272.4822,-142 288.9003,-142"/>
<polygon fill="#000000" stroke="#000000" points="289.0134,-145.5001 299.0134,-142 289.0134,-138.5001 289.0134,-145.5001"/>
</g>
<!-- oldParentState -->
<g id="node4" class="node">
<title>oldParentState</title>
<ellipse fill="none" stroke="#000000" cx="83.8966" cy="-88" rx="67.21" ry="18"/>
<text text-anchor="middle" x="83.8966" y="-83.8" font-family="Times,serif" font-size="14.00" fill="#000000">oldParentState</text>
</g>
<!-- setter -->
<g id="node5" class="node">
<title>setter</title>
<polygon fill="none" stroke="#000000" points="241.7932,-79 187.7932,-79 187.7932,-43 241.7932,-43 241.7932,-79"/>
<text text-anchor="middle" x="214.7932" y="-56.8" font-family="Times,serif" font-size="14.00" fill="#000000">setter</text>
</g>
<!-- oldParentState&#45;&gt;setter -->
<g id="edge3" class="edge">
<title>oldParentState&#45;&gt;setter</title>
<path fill="none" stroke="#000000" d="M137.5149,-76.9402C150.9737,-74.164 165.1228,-71.2455 177.5826,-68.6754"/>
<polygon fill="#000000" stroke="#000000" points="178.5126,-72.0574 187.5993,-66.6093 177.0984,-65.2017 178.5126,-72.0574"/>
</g>
<!-- newParentState -->
<g id="node6" class="node">
<title>newParentState</title>
<ellipse fill="none" stroke="#000000" cx="348.894" cy="-61" rx="71.2017" ry="18"/>
<text text-anchor="middle" x="348.894" y="-56.8" font-family="Times,serif" font-size="14.00" fill="#000000">newParentState</text>
</g>
<!-- setter&#45;&gt;newParentState -->
<g id="edge4" class="edge">
<title>setter&#45;&gt;newParentState</title>
<path fill="none" stroke="#000000" d="M241.9305,-61C249.6304,-61 258.4344,-61 267.6113,-61"/>
<polygon fill="#000000" stroke="#000000" points="267.6809,-64.5001 277.6809,-61 267.6809,-57.5001 267.6809,-64.5001"/>
</g>
<!-- newChildState -->
<g id="node7" class="node">
<title>newChildState</title>
<ellipse fill="none" stroke="#000000" cx="83.8966" cy="-34" rx="67.7934" ry="18"/>
<text text-anchor="middle" x="83.8966" y="-29.8" font-family="Times,serif" font-size="14.00" fill="#000000">newChildState</text>
</g>
<!-- newChildState&#45;&gt;setter -->
<g id="edge5" class="edge">
<title>newChildState&#45;&gt;setter</title>
<path fill="none" stroke="#000000" d="M137.5149,-45.0598C150.9737,-47.836 165.1228,-50.7545 177.5826,-53.3246"/>
<polygon fill="#000000" stroke="#000000" points="177.0984,-56.7983 187.5993,-55.3907 178.5126,-49.9426 177.0984,-56.7983"/>
</g>
</g>
</svg>
