<?xml version="1.0" encoding="UTF-8" standalone="no"?>
<!DOCTYPE svg PUBLIC "-//W3C//DTD SVG 1.1//EN"
 "http://www.w3.org/Graphics/SVG/1.1/DTD/svg11.dtd">
<!-- Generated by graphviz version 2.40.1 (20161225.0304)
 -->
<!-- Title: %0 Pages: 1 -->
<svg width="901pt" height="222pt"
 viewBox="0.00 0.00 901.19 222.00" xmlns="http://www.w3.org/2000/svg" xmlns:xlink="http://www.w3.org/1999/xlink">
<g id="graph0" class="graph" transform="scale(1 1) rotate(0) translate(4 218)">
<title>%0</title>
<polygon fill="#ffffff" stroke="transparent" points="-4,4 -4,-218 897.1935,-218 897.1935,4 -4,4"/>
<g id="clust1" class="cluster">
<title>cluster_sources</title>
<polygon fill="#ffffff" stroke="#000000" points="8,-8 8,-139 91.1265,-139 91.1265,-8 8,-8"/>
<text text-anchor="middle" x="49.5633" y="-122.4" font-family="Times,serif" font-size="14.00" fill="#000000">sources</text>
</g>
<g id="clust2" class="cluster">
<title>cluster_component</title>
<polygon fill="#ffffff" stroke="#000000" points="111.1265,-21 111.1265,-206 782.067,-206 782.067,-21 111.1265,-21"/>
<text text-anchor="middle" x="446.5968" y="-189.4" font-family="Times,serif" font-size="14.00" fill="#000000">composite component using Cycle State</text>
</g>
<g id="clust3" class="cluster">
<title>cluster_sinks</title>
<polygon fill="#ffffff" stroke="#000000" points="802.067,-21 802.067,-152 885.1935,-152 885.1935,-21 802.067,-21"/>
<text text-anchor="middle" x="843.6303" y="-135.4" font-family="Times,serif" font-size="14.00" fill="#000000">sinks</text>
</g>
<!-- DOM -->
<g id="node1" class="node">
<title>DOM</title>
<ellipse fill="none" stroke="#000000" cx="49.5633" cy="-88" rx="33.6266" ry="18"/>
<text text-anchor="middle" x="49.5633" y="-83.8" font-family="Times,serif" font-size="14.00" fill="#000000">DOM</text>
</g>
<!-- intent -->
<g id="node9" class="node">
<title>intent</title>
<polygon fill="none" stroke="#000000" points="173.1265,-163 119.1265,-163 119.1265,-127 173.1265,-127 173.1265,-163"/>
<text text-anchor="middle" x="146.1265" y="-140.8" font-family="Times,serif" font-size="14.00" fill="#000000">intent</text>
</g>
<!-- DOM&#45;&gt;intent -->
<g id="edge4" class="edge">
<title>DOM&#45;&gt;intent</title>
<path fill="none" stroke="#000000" d="M72.4474,-101.5082C83.6671,-108.131 97.4447,-116.2638 110.0381,-123.6975"/>
<polygon fill="#000000" stroke="#000000" points="108.5544,-126.8859 118.9452,-128.9552 112.1127,-120.8578 108.5544,-126.8859"/>
</g>
<!-- child -->
<g id="node12" class="node">
<title>child</title>
<polygon fill="none" stroke="#000000" points="398.4396,-85 344.4396,-85 344.4396,-49 398.4396,-49 398.4396,-85"/>
<text text-anchor="middle" x="371.4396" y="-62.8" font-family="Times,serif" font-size="14.00" fill="#000000">child</text>
</g>
<!-- DOM&#45;&gt;child -->
<g id="edge1" class="edge">
<title>DOM&#45;&gt;child</title>
<path fill="none" stroke="#000000" d="M72.4285,-74.7733C83.6876,-69.0084 97.7005,-62.9098 111.1265,-60 189.045,-43.113 283.1414,-52.8137 334.1513,-60.4847"/>
<polygon fill="#000000" stroke="#000000" points="333.6409,-63.9473 344.0612,-62.0319 334.7208,-57.0311 333.6409,-63.9473"/>
</g>
<!-- state -->
<g id="node2" class="node">
<title>state</title>
<ellipse fill="none" stroke="#000000" cx="49.5633" cy="-34" rx="28.9676" ry="18"/>
<text text-anchor="middle" x="49.5633" y="-29.8" font-family="Times,serif" font-size="14.00" fill="#000000">state</text>
</g>
<!-- view -->
<g id="node11" class="node">
<title>view</title>
<polygon fill="none" stroke="#000000" points="659.1358,-65 605.1358,-65 605.1358,-29 659.1358,-29 659.1358,-65"/>
<text text-anchor="middle" x="632.1358" y="-42.8" font-family="Times,serif" font-size="14.00" fill="#000000">view</text>
</g>
<!-- state&#45;&gt;view -->
<g id="edge9" class="edge">
<title>state&#45;&gt;view</title>
<path fill="none" stroke="#000000" d="M76.1033,-27.0821C115.6227,-17.4055 192.4097,-1 258.7831,-1 258.7831,-1 258.7831,-1 371.4396,-1 459.7095,-1 483.6178,1.8684 569.1358,-20 577.9309,-22.2491 587.0789,-25.5554 595.5883,-29.0892"/>
<polygon fill="#000000" stroke="#000000" points="594.3058,-32.3481 604.8716,-33.1314 597.1004,-25.9301 594.3058,-32.3481"/>
</g>
<!-- lens -->
<g id="node13" class="node">
<title>lens</title>
<polygon fill="none" stroke="#000000" points="173.1265,-105 119.1265,-105 119.1265,-69 173.1265,-69 173.1265,-105"/>
<text text-anchor="middle" x="146.1265" y="-82.8" font-family="Times,serif" font-size="14.00" fill="#000000">lens</text>
</g>
<!-- state&#45;&gt;lens -->
<g id="edge12" class="edge">
<title>state&#45;&gt;lens</title>
<path fill="none" stroke="#000000" d="M71.475,-46.0265C82.7587,-52.2198 96.8144,-59.9344 109.6763,-66.9938"/>
<polygon fill="#000000" stroke="#000000" points="108.3237,-70.2439 118.7741,-71.9873 111.6918,-64.1075 108.3237,-70.2439"/>
</g>
<!-- reducer -->
<g id="node3" class="node">
<title>reducer</title>
<ellipse fill="none" stroke="#000000" cx="501.7877" cy="-155" rx="44.6241" ry="18"/>
<text text-anchor="middle" x="501.7877" y="-150.8" font-family="Times,serif" font-size="14.00" fill="#000000">reducer$</text>
</g>
<!-- state2 -->
<g id="node15" class="node">
<title>state2</title>
<ellipse fill="none" stroke="#000000" cx="843.6303" cy="-101" rx="28.9676" ry="18"/>
<text text-anchor="middle" x="843.6303" y="-96.8" font-family="Times,serif" font-size="14.00" fill="#000000">state</text>
</g>
<!-- reducer&#45;&gt;state2 -->
<g id="edge8" class="edge">
<title>reducer&#45;&gt;state2</title>
<path fill="none" stroke="#000000" d="M545.1799,-149.9257C600.417,-143.21 698.6896,-130.4032 782.067,-115 790.1004,-113.5159 798.6743,-111.7093 806.7931,-109.8938"/>
<polygon fill="#000000" stroke="#000000" points="807.7915,-113.2559 816.7585,-107.6129 806.2297,-106.4323 807.7915,-113.2559"/>
</g>
<!-- actions -->
<g id="node4" class="node">
<title>actions</title>
<ellipse fill="none" stroke="#000000" cx="258.7831" cy="-153" rx="39.4254" ry="18"/>
<text text-anchor="middle" x="258.7831" y="-148.8" font-family="Times,serif" font-size="14.00" fill="#000000">action$</text>
</g>
<!-- model -->
<g id="node10" class="node">
<title>model</title>
<polygon fill="none" stroke="#000000" points="398.4396,-172 344.4396,-172 344.4396,-136 398.4396,-136 398.4396,-172"/>
<text text-anchor="middle" x="371.4396" y="-149.8" font-family="Times,serif" font-size="14.00" fill="#000000">model</text>
</g>
<!-- actions&#45;&gt;model -->
<g id="edge6" class="edge">
<title>actions&#45;&gt;model</title>
<path fill="none" stroke="#000000" d="M298.5016,-153.3526C310.1419,-153.4559 322.8215,-153.5684 334.2951,-153.6703"/>
<polygon fill="#000000" stroke="#000000" points="334.398,-157.1712 344.4287,-153.7602 334.4602,-150.1715 334.398,-157.1712"/>
</g>
<!-- vnode -->
<g id="node5" class="node">
<title>vnode</title>
<ellipse fill="none" stroke="#000000" cx="734.6014" cy="-47" rx="39.4312" ry="18"/>
<text text-anchor="middle" x="734.6014" y="-42.8" font-family="Times,serif" font-size="14.00" fill="#000000">vnode$</text>
</g>
<!-- DOM2 -->
<g id="node14" class="node">
<title>DOM2</title>
<ellipse fill="none" stroke="#000000" cx="843.6303" cy="-47" rx="33.6266" ry="18"/>
<text text-anchor="middle" x="843.6303" y="-42.8" font-family="Times,serif" font-size="14.00" fill="#000000">DOM</text>
</g>
<!-- vnode&#45;&gt;DOM2 -->
<g id="edge11" class="edge">
<title>vnode&#45;&gt;DOM2</title>
<path fill="none" stroke="#000000" d="M774.2717,-47C782.5828,-47 791.3921,-47 799.8433,-47"/>
<polygon fill="#000000" stroke="#000000" points="799.9168,-50.5001 809.9167,-47 799.9167,-43.5001 799.9168,-50.5001"/>
</g>
<!-- childState -->
<g id="node6" class="node">
<title>childState</title>
<ellipse fill="none" stroke="#000000" cx="258.7831" cy="-87" rx="49.8136" ry="18"/>
<text text-anchor="middle" x="258.7831" y="-82.8" font-family="Times,serif" font-size="14.00" fill="#000000">childState</text>
</g>
<!-- childState&#45;&gt;child -->
<g id="edge14" class="edge">
<title>childState&#45;&gt;child</title>
<path fill="none" stroke="#000000" d="M303.6316,-79.038C313.8327,-77.227 324.5584,-75.3229 334.3924,-73.577"/>
<polygon fill="#000000" stroke="#000000" points="335.0242,-77.0197 344.2584,-71.8255 333.8005,-70.1274 335.0242,-77.0197"/>
</g>
<!-- childReducer -->
<g id="node7" class="node">
<title>childReducer</title>
<ellipse fill="none" stroke="#000000" cx="501.7877" cy="-101" rx="67.1965" ry="18"/>
<text text-anchor="middle" x="501.7877" y="-96.8" font-family="Times,serif" font-size="14.00" fill="#000000">childReducer$</text>
</g>
<!-- childReducer&#45;&gt;state2 -->
<g id="edge16" class="edge">
<title>childReducer&#45;&gt;state2</title>
<path fill="none" stroke="#000000" d="M569.3248,-101C639.6644,-101 747.4217,-101 804.6936,-101"/>
<polygon fill="#000000" stroke="#000000" points="804.7796,-104.5001 814.7796,-101 804.7795,-97.5001 804.7796,-104.5001"/>
</g>
<!-- childVnode -->
<g id="node8" class="node">
<title>childVnode</title>
<ellipse fill="none" stroke="#000000" cx="501.7877" cy="-47" rx="60.839" ry="18"/>
<text text-anchor="middle" x="501.7877" y="-42.8" font-family="Times,serif" font-size="14.00" fill="#000000">childVnode$</text>
</g>
<!-- childVnode&#45;&gt;view -->
<g id="edge3" class="edge">
<title>childVnode&#45;&gt;view</title>
<path fill="none" stroke="#000000" d="M562.7637,-47C573.7792,-47 584.9553,-47 595.0263,-47"/>
<polygon fill="#000000" stroke="#000000" points="595.0683,-50.5001 605.0683,-47 595.0682,-43.5001 595.0683,-50.5001"/>
</g>
<!-- intent&#45;&gt;actions -->
<g id="edge5" class="edge">
<title>intent&#45;&gt;actions</title>
<path fill="none" stroke="#000000" d="M173.3975,-146.9366C184.1829,-147.7025 196.9255,-148.6073 209.2304,-149.4811"/>
<polygon fill="#000000" stroke="#000000" points="209.1881,-152.9869 219.411,-150.2041 209.684,-146.0045 209.1881,-152.9869"/>
</g>
<!-- model&#45;&gt;reducer -->
<g id="edge7" class="edge">
<title>model&#45;&gt;reducer</title>
<path fill="none" stroke="#000000" d="M398.4479,-154.2072C412.4041,-154.3143 429.9654,-154.449 446.6313,-154.5769"/>
<polygon fill="#000000" stroke="#000000" points="446.8257,-158.0784 456.8523,-154.6553 446.8795,-151.0786 446.8257,-158.0784"/>
</g>
<!-- view&#45;&gt;vnode -->
<g id="edge10" class="edge">
<title>view&#45;&gt;vnode</title>
<path fill="none" stroke="#000000" d="M659.3257,-47C667.1667,-47 675.9793,-47 684.7385,-47"/>
<polygon fill="#000000" stroke="#000000" points="684.9352,-50.5001 694.9351,-47 684.9351,-43.5001 684.9352,-50.5001"/>
</g>
<!-- child&#45;&gt;childReducer -->
<g id="edge15" class="edge">
<title>child&#45;&gt;childReducer</title>
<path fill="none" stroke="#000000" d="M398.4479,-74.0448C411.6013,-77.4758 427.957,-81.742 443.7473,-85.8607"/>
<polygon fill="#000000" stroke="#000000" points="442.9127,-89.2601 453.4723,-88.3974 444.6795,-82.4867 442.9127,-89.2601"/>
</g>
<!-- child&#45;&gt;childVnode -->
<g id="edge2" class="edge">
<title>child&#45;&gt;childVnode</title>
<path fill="none" stroke="#000000" d="M398.4479,-62.856C409.9089,-61.0975 423.8012,-58.9659 437.6323,-56.8437"/>
<polygon fill="#000000" stroke="#000000" points="438.3035,-60.2818 447.657,-55.3056 437.2418,-53.3627 438.3035,-60.2818"/>
</g>
<!-- lens&#45;&gt;childState -->
<g id="edge13" class="edge">
<title>lens&#45;&gt;childState</title>
<path fill="none" stroke="#000000" d="M173.3975,-87C181.1569,-87 189.9293,-87 198.8229,-87"/>
<polygon fill="#000000" stroke="#000000" points="198.8681,-90.5001 208.8681,-87 198.868,-83.5001 198.8681,-90.5001"/>
</g>
</g>
</svg>
