<?xml version="1.0" encoding="UTF-8" standalone="no"?>
<!DOCTYPE svg PUBLIC "-//W3C//DTD SVG 1.1//EN"
 "http://www.w3.org/Graphics/SVG/1.1/DTD/svg11.dtd">
<!-- Generated by graphviz version 2.40.1 (20161225.0304)
 -->
<!-- Title: %0 Pages: 1 -->
<svg width="901pt" height="205pt"
 viewBox="0.00 0.00 901.19 205.00" xmlns="http://www.w3.org/2000/svg" xmlns:xlink="http://www.w3.org/1999/xlink">
<g id="graph0" class="graph" transform="scale(1 1) rotate(0) translate(4 201)">
<title>%0</title>
<polygon fill="#ffffff" stroke="transparent" points="-4,4 -4,-201 897.1935,-201 897.1935,4 -4,4"/>
<g id="clust1" class="cluster">
<title>cluster_sources</title>
<polygon fill="#ffffff" stroke="#000000" points="8,-16 8,-147 91.1265,-147 91.1265,-16 8,-16"/>
<text text-anchor="middle" x="49.5633" y="-130.4" font-family="Times,serif" font-size="14.00" fill="#000000">sources</text>
</g>
<g id="clust2" class="cluster">
<title>cluster_component</title>
<polygon fill="#ffffff" stroke="#000000" points="111.1265,-58 111.1265,-189 782.067,-189 782.067,-58 111.1265,-58"/>
<text text-anchor="middle" x="446.5968" y="-172.4" font-family="Times,serif" font-size="14.00" fill="#000000">composite component using Cycle State</text>
</g>
<g id="clust3" class="cluster">
<title>cluster_sinks</title>
<polygon fill="#ffffff" stroke="#000000" points="802.067,-58 802.067,-189 885.1935,-189 885.1935,-58 802.067,-58"/>
<text text-anchor="middle" x="843.6303" y="-172.4" font-family="Times,serif" font-size="14.00" fill="#000000">sinks</text>
</g>
<!-- DOM -->
<g id="node1" class="node">
<title>DOM</title>
<ellipse fill="none" stroke="#000000" cx="49.5633" cy="-96" rx="33.6266" ry="18"/>
<text text-anchor="middle" x="49.5633" y="-91.8" font-family="Times,serif" font-size="14.00" fill="#000000">DOM</text>
</g>
<!-- intent -->
<g id="node8" class="node">
<title>intent</title>
<polygon fill="none" stroke="#000000" points="173.1265,-156 119.1265,-156 119.1265,-120 173.1265,-120 173.1265,-156"/>
<text text-anchor="middle" x="146.1265" y="-133.8" font-family="Times,serif" font-size="14.00" fill="#000000">intent</text>
</g>
<!-- DOM&#45;&gt;intent -->
<g id="edge4" class="edge">
<title>DOM&#45;&gt;intent</title>
<path fill="none" stroke="#000000" d="M75.6947,-107.3658C86.1674,-111.9209 98.4154,-117.2481 109.7338,-122.171"/>
<polygon fill="#000000" stroke="#000000" points="108.3971,-125.4063 118.9633,-126.1854 111.1891,-118.9872 108.3971,-125.4063"/>
</g>
<!-- child -->
<g id="node10" class="node">
<title>child</title>
<polygon fill="none" stroke="#000000" points="398.4396,-102 344.4396,-102 344.4396,-66 398.4396,-66 398.4396,-102"/>
<text text-anchor="middle" x="371.4396" y="-79.8" font-family="Times,serif" font-size="14.00" fill="#000000">child</text>
</g>
<!-- DOM&#45;&gt;child -->
<g id="edge1" class="edge">
<title>DOM&#45;&gt;child</title>
<path fill="none" stroke="#000000" d="M70.9801,-82.0351C87.8263,-71.1145 108.833,-57.6653 111.1265,-57 195.349,-32.5677 222.5359,-39.3676 308.4396,-57 317.3324,-58.8253 326.5198,-61.9605 335.0365,-65.4627"/>
<polygon fill="#000000" stroke="#000000" points="333.7512,-68.7207 344.3157,-69.5226 336.5571,-62.3077 333.7512,-68.7207"/>
</g>
<!-- state -->
<g id="node2" class="node">
<title>state</title>
<ellipse fill="none" stroke="#000000" cx="49.5633" cy="-42" rx="28.9676" ry="18"/>
<text text-anchor="middle" x="49.5633" y="-37.8" font-family="Times,serif" font-size="14.00" fill="#000000">state</text>
</g>
<!-- view -->
<g id="node9" class="node">
<title>view</title>
<polygon fill="none" stroke="#000000" points="659.1358,-102 605.1358,-102 605.1358,-66 659.1358,-66 659.1358,-102"/>
<text text-anchor="middle" x="632.1358" y="-79.8" font-family="Times,serif" font-size="14.00" fill="#000000">view</text>
</g>
<!-- state&#45;&gt;view -->
<g id="edge7" class="edge">
<title>state&#45;&gt;view</title>
<path fill="none" stroke="#000000" d="M75.0001,-33.5007C114.0557,-21.2281 191.3566,0 258.7831,0 258.7831,0 258.7831,0 371.4396,0 454.9766,0 546.6294,-39.5579 595.9194,-64.3811"/>
<polygon fill="#000000" stroke="#000000" points="594.4117,-67.5412 604.9081,-68.9825 597.6015,-61.3102 594.4117,-67.5412"/>
</g>
<!-- lens -->
<g id="node11" class="node">
<title>lens</title>
<polygon fill="none" stroke="#000000" points="173.1265,-102 119.1265,-102 119.1265,-66 173.1265,-66 173.1265,-102"/>
<text text-anchor="middle" x="146.1265" y="-79.8" font-family="Times,serif" font-size="14.00" fill="#000000">lens</text>
</g>
<!-- state&#45;&gt;lens -->
<g id="edge10" class="edge">
<title>state&#45;&gt;lens</title>
<path fill="none" stroke="#000000" d="M73.4328,-52.382C84.362,-57.1356 97.5558,-62.8743 109.6867,-68.1506"/>
<polygon fill="#000000" stroke="#000000" points="108.5578,-71.4762 119.124,-72.2553 111.3498,-65.0571 108.5578,-71.4762"/>
</g>
<!-- reducer -->
<g id="node3" class="node">
<title>reducer</title>
<ellipse fill="none" stroke="#000000" cx="258.7831" cy="-138" rx="44.6241" ry="18"/>
<text text-anchor="middle" x="258.7831" y="-133.8" font-family="Times,serif" font-size="14.00" fill="#000000">reducer$</text>
</g>
<!-- state2 -->
<g id="node13" class="node">
<title>state2</title>
<ellipse fill="none" stroke="#000000" cx="843.6303" cy="-138" rx="28.9676" ry="18"/>
<text text-anchor="middle" x="843.6303" y="-133.8" font-family="Times,serif" font-size="14.00" fill="#000000">state</text>
</g>
<!-- reducer&#45;&gt;state2 -->
<g id="edge6" class="edge">
<title>reducer&#45;&gt;state2</title>
<path fill="none" stroke="#000000" d="M294.6116,-149.1353C341.6637,-162.7491 427.0764,-184 501.7877,-184 501.7877,-184 501.7877,-184 632.1358,-184 695.6624,-184 767.5207,-163.9385 809.0011,-150.3125"/>
<polygon fill="#000000" stroke="#000000" points="810.2512,-153.5849 818.6203,-147.0881 808.0264,-146.9479 810.2512,-153.5849"/>
</g>
<!-- vnode -->
<g id="node4" class="node">
<title>vnode</title>
<ellipse fill="none" stroke="#000000" cx="734.6014" cy="-84" rx="39.4312" ry="18"/>
<text text-anchor="middle" x="734.6014" y="-79.8" font-family="Times,serif" font-size="14.00" fill="#000000">vnode$</text>
</g>
<!-- DOM2 -->
<g id="node12" class="node">
<title>DOM2</title>
<ellipse fill="none" stroke="#000000" cx="843.6303" cy="-84" rx="33.6266" ry="18"/>
<text text-anchor="middle" x="843.6303" y="-79.8" font-family="Times,serif" font-size="14.00" fill="#000000">DOM</text>
</g>
<!-- vnode&#45;&gt;DOM2 -->
<g id="edge9" class="edge">
<title>vnode&#45;&gt;DOM2</title>
<path fill="none" stroke="#000000" d="M774.2717,-84C782.5828,-84 791.3921,-84 799.8433,-84"/>
<polygon fill="#000000" stroke="#000000" points="799.9168,-87.5001 809.9167,-84 799.9167,-80.5001 799.9168,-87.5001"/>
</g>
<!-- childState -->
<g id="node5" class="node">
<title>childState</title>
<ellipse fill="none" stroke="#000000" cx="258.7831" cy="-84" rx="49.8136" ry="18"/>
<text text-anchor="middle" x="258.7831" y="-79.8" font-family="Times,serif" font-size="14.00" fill="#000000">childState</text>
</g>
<!-- childState&#45;&gt;child -->
<g id="edge12" class="edge">
<title>childState&#45;&gt;child</title>
<path fill="none" stroke="#000000" d="M308.5238,-84C317.1443,-84 325.9735,-84 334.1888,-84"/>
<polygon fill="#000000" stroke="#000000" points="334.2046,-87.5001 344.2046,-84 334.2045,-80.5001 334.2046,-87.5001"/>
</g>
<!-- childReducer -->
<g id="node6" class="node">
<title>childReducer</title>
<ellipse fill="none" stroke="#000000" cx="501.7877" cy="-138" rx="67.1965" ry="18"/>
<text text-anchor="middle" x="501.7877" y="-133.8" font-family="Times,serif" font-size="14.00" fill="#000000">childReducer$</text>
</g>
<!-- childReducer&#45;&gt;state2 -->
<g id="edge14" class="edge">
<title>childReducer&#45;&gt;state2</title>
<path fill="none" stroke="#000000" d="M569.3248,-138C639.6644,-138 747.4217,-138 804.6936,-138"/>
<polygon fill="#000000" stroke="#000000" points="804.7796,-141.5001 814.7796,-138 804.7795,-134.5001 804.7796,-141.5001"/>
</g>
<!-- childVnode -->
<g id="node7" class="node">
<title>childVnode</title>
<ellipse fill="none" stroke="#000000" cx="501.7877" cy="-84" rx="60.839" ry="18"/>
<text text-anchor="middle" x="501.7877" y="-79.8" font-family="Times,serif" font-size="14.00" fill="#000000">childVnode$</text>
</g>
<!-- childVnode&#45;&gt;view -->
<g id="edge3" class="edge">
<title>childVnode&#45;&gt;view</title>
<path fill="none" stroke="#000000" d="M562.7637,-84C573.7792,-84 584.9553,-84 595.0263,-84"/>
<polygon fill="#000000" stroke="#000000" points="595.0683,-87.5001 605.0683,-84 595.0682,-80.5001 595.0683,-87.5001"/>
</g>
<!-- intent&#45;&gt;reducer -->
<g id="edge5" class="edge">
<title>intent&#45;&gt;reducer</title>
<path fill="none" stroke="#000000" d="M173.3975,-138C182.5763,-138 193.1726,-138 203.7102,-138"/>
<polygon fill="#000000" stroke="#000000" points="203.7473,-141.5001 213.7472,-138 203.7472,-134.5001 203.7473,-141.5001"/>
</g>
<!-- view&#45;&gt;vnode -->
<g id="edge8" class="edge">
<title>view&#45;&gt;vnode</title>
<path fill="none" stroke="#000000" d="M659.3257,-84C667.1667,-84 675.9793,-84 684.7385,-84"/>
<polygon fill="#000000" stroke="#000000" points="684.9352,-87.5001 694.9351,-84 684.9351,-80.5001 684.9352,-87.5001"/>
</g>
<!-- child&#45;&gt;childReducer -->
<g id="edge13" class="edge">
<title>child&#45;&gt;childReducer</title>
<path fill="none" stroke="#000000" d="M398.669,-95.8359C409.7425,-100.6059 422.6781,-106.1229 434.4396,-111 440.8505,-113.6584 447.6212,-116.423 454.3,-119.1251"/>
<polygon fill="#000000" stroke="#000000" points="453.3834,-122.5292 463.9668,-123.0196 455.9992,-116.0362 453.3834,-122.5292"/>
</g>
<!-- child&#45;&gt;childVnode -->
<g id="edge2" class="edge">
<title>child&#45;&gt;childVnode</title>
<path fill="none" stroke="#000000" d="M398.4479,-84C407.9642,-84 419.1568,-84 430.5988,-84"/>
<polygon fill="#000000" stroke="#000000" points="430.6823,-87.5001 440.6822,-84 430.6822,-80.5001 430.6823,-87.5001"/>
</g>
<!-- lens&#45;&gt;childState -->
<g id="edge11" class="edge">
<title>lens&#45;&gt;childState</title>
<path fill="none" stroke="#000000" d="M173.3975,-84C181.1569,-84 189.9293,-84 198.8229,-84"/>
<polygon fill="#000000" stroke="#000000" points="198.8681,-87.5001 208.8681,-84 198.868,-80.5001 198.8681,-87.5001"/>
</g>
</g>
</svg>
