<?xml version="1.0" encoding="UTF-8" standalone="no"?>
<!DOCTYPE svg PUBLIC "-//W3C//DTD SVG 1.1//EN"
 "http://www.w3.org/Graphics/SVG/1.1/DTD/svg11.dtd">
<!-- Generated by graphviz version 2.40.1 (20161225.0304)
 -->
<!-- Title: %0 Pages: 1 -->
<svg width="631pt" height="155pt"
 viewBox="0.00 0.00 630.81 155.00" xmlns="http://www.w3.org/2000/svg" xmlns:xlink="http://www.w3.org/1999/xlink">
<g id="graph0" class="graph" transform="scale(1 1) rotate(0) translate(4 151)">
<title>%0</title>
<polygon fill="#ffffff" stroke="transparent" points="-4,4 -4,-151 626.8076,-151 626.8076,4 -4,4"/>
<g id="clust1" class="cluster">
<title>cluster_sources</title>
<polygon fill="#ffffff" stroke="#000000" points="8,-8 8,-139 91.1265,-139 91.1265,-8 8,-8"/>
<text text-anchor="middle" x="49.5633" y="-122.4" font-family="Times,serif" font-size="14.00" fill="#000000">sources</text>
</g>
<g id="clust2" class="cluster">
<title>cluster_component</title>
<polygon fill="#ffffff" stroke="#000000" points="111.1265,-8 111.1265,-139 511.681,-139 511.681,-8 111.1265,-8"/>
<text text-anchor="middle" x="311.4038" y="-122.4" font-family="Times,serif" font-size="14.00" fill="#000000">component using Cycle State</text>
</g>
<g id="clust3" class="cluster">
<title>cluster_sinks</title>
<polygon fill="#ffffff" stroke="#000000" points="531.681,-8 531.681,-139 614.8076,-139 614.8076,-8 531.681,-8"/>
<text text-anchor="middle" x="573.2443" y="-122.4" font-family="Times,serif" font-size="14.00" fill="#000000">sinks</text>
</g>
<!-- DOM -->
<g id="node1" class="node">
<title>DOM</title>
<ellipse fill="none" stroke="#000000" cx="49.5633" cy="-88" rx="33.6266" ry="18"/>
<text text-anchor="middle" x="49.5633" y="-83.8" font-family="Times,serif" font-size="14.00" fill="#000000">DOM</text>
</g>
<!-- intent -->
<g id="node6" class="node">
<title>intent</title>
<polygon fill="none" stroke="#000000" points="173.1265,-106 119.1265,-106 119.1265,-70 173.1265,-70 173.1265,-106"/>
<text text-anchor="middle" x="146.1265" y="-83.8" font-family="Times,serif" font-size="14.00" fill="#000000">intent</text>
</g>
<!-- DOM&#45;&gt;intent -->
<g id="edge1" class="edge">
<title>DOM&#45;&gt;intent</title>
<path fill="none" stroke="#000000" d="M83.3364,-88C91.5199,-88 100.3165,-88 108.659,-88"/>
<polygon fill="#000000" stroke="#000000" points="108.903,-91.5001 118.9029,-88 108.9029,-84.5001 108.903,-91.5001"/>
</g>
<!-- state -->
<g id="node2" class="node">
<title>state</title>
<ellipse fill="none" stroke="#000000" cx="49.5633" cy="-34" rx="28.9676" ry="18"/>
<text text-anchor="middle" x="49.5633" y="-29.8" font-family="Times,serif" font-size="14.00" fill="#000000">state</text>
</g>
<!-- view -->
<g id="node8" class="node">
<title>view</title>
<polygon fill="none" stroke="#000000" points="173.1265,-52 119.1265,-52 119.1265,-16 173.1265,-16 173.1265,-52"/>
<text text-anchor="middle" x="146.1265" y="-29.8" font-family="Times,serif" font-size="14.00" fill="#000000">view</text>
</g>
<!-- state&#45;&gt;view -->
<g id="edge6" class="edge">
<title>state&#45;&gt;view</title>
<path fill="none" stroke="#000000" d="M78.5354,-34C88.0186,-34 98.6916,-34 108.7069,-34"/>
<polygon fill="#000000" stroke="#000000" points="108.8285,-37.5001 118.8285,-34 108.8284,-30.5001 108.8285,-37.5001"/>
</g>
<!-- reducer -->
<g id="node3" class="node">
<title>reducer</title>
<ellipse fill="none" stroke="#000000" cx="458.8694" cy="-88" rx="44.6241" ry="18"/>
<text text-anchor="middle" x="458.8694" y="-83.8" font-family="Times,serif" font-size="14.00" fill="#000000">reducer$</text>
</g>
<!-- state2 -->
<g id="node10" class="node">
<title>state2</title>
<ellipse fill="none" stroke="#000000" cx="573.2443" cy="-88" rx="28.9676" ry="18"/>
<text text-anchor="middle" x="573.2443" y="-83.8" font-family="Times,serif" font-size="14.00" fill="#000000">state</text>
</g>
<!-- reducer&#45;&gt;state2 -->
<g id="edge5" class="edge">
<title>reducer&#45;&gt;state2</title>
<path fill="none" stroke="#000000" d="M503.7451,-88C513.7643,-88 524.3129,-88 534.0801,-88"/>
<polygon fill="#000000" stroke="#000000" points="534.31,-91.5001 544.3099,-88 534.3099,-84.5001 534.31,-91.5001"/>
</g>
<!-- actions -->
<g id="node4" class="node">
<title>actions</title>
<ellipse fill="none" stroke="#000000" cx="248.5921" cy="-88" rx="39.4254" ry="18"/>
<text text-anchor="middle" x="248.5921" y="-83.8" font-family="Times,serif" font-size="14.00" fill="#000000">action$</text>
</g>
<!-- model -->
<g id="node7" class="node">
<title>model</title>
<polygon fill="none" stroke="#000000" points="378.0577,-106 324.0577,-106 324.0577,-70 378.0577,-70 378.0577,-106"/>
<text text-anchor="middle" x="351.0577" y="-83.8" font-family="Times,serif" font-size="14.00" fill="#000000">model</text>
</g>
<!-- actions&#45;&gt;model -->
<g id="edge3" class="edge">
<title>actions&#45;&gt;model</title>
<path fill="none" stroke="#000000" d="M288.208,-88C296.6026,-88 305.4364,-88 313.7422,-88"/>
<polygon fill="#000000" stroke="#000000" points="313.9077,-91.5001 323.9077,-88 313.9077,-84.5001 313.9077,-91.5001"/>
</g>
<!-- vnode -->
<g id="node5" class="node">
<title>vnode</title>
<ellipse fill="none" stroke="#000000" cx="248.5921" cy="-34" rx="39.4312" ry="18"/>
<text text-anchor="middle" x="248.5921" y="-29.8" font-family="Times,serif" font-size="14.00" fill="#000000">vnode$</text>
</g>
<!-- DOM2 -->
<g id="node9" class="node">
<title>DOM2</title>
<ellipse fill="none" stroke="#000000" cx="573.2443" cy="-34" rx="33.6266" ry="18"/>
<text text-anchor="middle" x="573.2443" y="-29.8" font-family="Times,serif" font-size="14.00" fill="#000000">DOM</text>
</g>
<!-- vnode&#45;&gt;DOM2 -->
<g id="edge8" class="edge">
<title>vnode&#45;&gt;DOM2</title>
<path fill="none" stroke="#000000" d="M288.0763,-34C349.0644,-34 465.7666,-34 529.3333,-34"/>
<polygon fill="#000000" stroke="#000000" points="529.4369,-37.5001 539.4368,-34 529.4368,-30.5001 529.4369,-37.5001"/>
</g>
<!-- intent&#45;&gt;actions -->
<g id="edge2" class="edge">
<title>intent&#45;&gt;actions</title>
<path fill="none" stroke="#000000" d="M173.3164,-88C181.1574,-88 189.97,-88 198.7292,-88"/>
<polygon fill="#000000" stroke="#000000" points="198.9259,-91.5001 208.9258,-88 198.9258,-84.5001 198.9259,-91.5001"/>
</g>
<!-- model&#45;&gt;reducer -->
<g id="edge4" class="edge">
<title>model&#45;&gt;reducer</title>
<path fill="none" stroke="#000000" d="M378.2631,-88C386.1493,-88 395.0554,-88 403.997,-88"/>
<polygon fill="#000000" stroke="#000000" points="404.0549,-91.5001 414.0549,-88 404.0549,-84.5001 404.0549,-91.5001"/>
</g>
<!-- view&#45;&gt;vnode -->
<g id="edge7" class="edge">
<title>view&#45;&gt;vnode</title>
<path fill="none" stroke="#000000" d="M173.3164,-34C181.1574,-34 189.97,-34 198.7292,-34"/>
<polygon fill="#000000" stroke="#000000" points="198.9259,-37.5001 208.9258,-34 198.9258,-30.5001 198.9259,-37.5001"/>
</g>
</g>
</svg>
