<?xml version="1.0" encoding="UTF-8" standalone="no"?>
<!DOCTYPE svg PUBLIC "-//W3C//DTD SVG 1.1//EN"
 "http://www.w3.org/Graphics/SVG/1.1/DTD/svg11.dtd">
<!-- Generated by graphviz version 2.40.1 (20161225.0304)
 -->
<!-- Title: %0 Pages: 1 -->
<svg width="426pt" height="155pt"
 viewBox="0.00 0.00 425.88 155.00" xmlns="http://www.w3.org/2000/svg" xmlns:xlink="http://www.w3.org/1999/xlink">
<g id="graph0" class="graph" transform="scale(1 1) rotate(0) translate(4 151)">
<title>%0</title>
<polygon fill="#ffffff" stroke="transparent" points="-4,4 -4,-151 421.8764,-151 421.8764,4 -4,4"/>
<g id="clust1" class="cluster">
<title>cluster_sources</title>
<polygon fill="#ffffff" stroke="#000000" points="8,-8 8,-139 91.1265,-139 91.1265,-8 8,-8"/>
<text text-anchor="middle" x="49.5633" y="-122.4" font-family="Times,serif" font-size="14.00" fill="#000000">sources</text>
</g>
<g id="clust2" class="cluster">
<title>cluster_component</title>
<polygon fill="#ffffff" stroke="#000000" points="111.1265,-8 111.1265,-139 306.7499,-139 306.7499,-8 111.1265,-8"/>
<text text-anchor="middle" x="208.9382" y="-122.4" font-family="Times,serif" font-size="14.00" fill="#000000">component using Cycle State</text>
</g>
<g id="clust3" class="cluster">
<title>cluster_sinks</title>
<polygon fill="#ffffff" stroke="#000000" points="326.7499,-8 326.7499,-139 409.8764,-139 409.8764,-8 326.7499,-8"/>
<text text-anchor="middle" x="368.3131" y="-122.4" font-family="Times,serif" font-size="14.00" fill="#000000">sinks</text>
</g>
<!-- DOM -->
<g id="node1" class="node">
<title>DOM</title>
<ellipse fill="none" stroke="#000000" cx="49.5633" cy="-88" rx="33.6266" ry="18"/>
<text text-anchor="middle" x="49.5633" y="-83.8" font-family="Times,serif" font-size="14.00" fill="#000000">DOM</text>
</g>
<!-- intent -->
<g id="node5" class="node">
<title>intent</title>
<polygon fill="none" stroke="#000000" points="173.1265,-106 119.1265,-106 119.1265,-70 173.1265,-70 173.1265,-106"/>
<text text-anchor="middle" x="146.1265" y="-83.8" font-family="Times,serif" font-size="14.00" fill="#000000">intent</text>
</g>
<!-- DOM&#45;&gt;intent -->
<g id="edge1" class="edge">
<title>DOM&#45;&gt;intent</title>
<path fill="none" stroke="#000000" d="M83.3364,-88C91.5199,-88 100.3165,-88 108.659,-88"/>
<polygon fill="#000000" stroke="#000000" points="108.903,-91.5001 118.9029,-88 108.9029,-84.5001 108.903,-91.5001"/>
</g>
<!-- state -->
<g id="node2" class="node">
<title>state</title>
<ellipse fill="none" stroke="#000000" cx="49.5633" cy="-34" rx="28.9676" ry="18"/>
<text text-anchor="middle" x="49.5633" y="-29.8" font-family="Times,serif" font-size="14.00" fill="#000000">state</text>
</g>
<!-- view -->
<g id="node6" class="node">
<title>view</title>
<polygon fill="none" stroke="#000000" points="173.1265,-52 119.1265,-52 119.1265,-16 173.1265,-16 173.1265,-52"/>
<text text-anchor="middle" x="146.1265" y="-29.8" font-family="Times,serif" font-size="14.00" fill="#000000">view</text>
</g>
<!-- state&#45;&gt;view -->
<g id="edge4" class="edge">
<title>state&#45;&gt;view</title>
<path fill="none" stroke="#000000" d="M78.5354,-34C88.0186,-34 98.6916,-34 108.7069,-34"/>
<polygon fill="#000000" stroke="#000000" points="108.8285,-37.5001 118.8285,-34 108.8284,-30.5001 108.8285,-37.5001"/>
</g>
<!-- reducer -->
<g id="node3" class="node">
<title>reducer</title>
<ellipse fill="none" stroke="#000000" cx="253.9382" cy="-88" rx="44.6241" ry="18"/>
<text text-anchor="middle" x="253.9382" y="-83.8" font-family="Times,serif" font-size="14.00" fill="#000000">reducer$</text>
</g>
<!-- state2 -->
<g id="node8" class="node">
<title>state2</title>
<ellipse fill="none" stroke="#000000" cx="368.3131" cy="-88" rx="28.9676" ry="18"/>
<text text-anchor="middle" x="368.3131" y="-83.8" font-family="Times,serif" font-size="14.00" fill="#000000">state</text>
</g>
<!-- reducer&#45;&gt;state2 -->
<g id="edge3" class="edge">
<title>reducer&#45;&gt;state2</title>
<path fill="none" stroke="#000000" d="M298.8139,-88C308.8332,-88 319.3817,-88 329.1489,-88"/>
<polygon fill="#000000" stroke="#000000" points="329.3788,-91.5001 339.3788,-88 329.3787,-84.5001 329.3788,-91.5001"/>
</g>
<!-- vnode -->
<g id="node4" class="node">
<title>vnode</title>
<ellipse fill="none" stroke="#000000" cx="253.9382" cy="-34" rx="39.4312" ry="18"/>
<text text-anchor="middle" x="253.9382" y="-29.8" font-family="Times,serif" font-size="14.00" fill="#000000">vnode$</text>
</g>
<!-- DOM2 -->
<g id="node7" class="node">
<title>DOM2</title>
<ellipse fill="none" stroke="#000000" cx="368.3131" cy="-34" rx="33.6266" ry="18"/>
<text text-anchor="middle" x="368.3131" y="-29.8" font-family="Times,serif" font-size="14.00" fill="#000000">DOM</text>
</g>
<!-- vnode&#45;&gt;DOM2 -->
<g id="edge6" class="edge">
<title>vnode&#45;&gt;DOM2</title>
<path fill="none" stroke="#000000" d="M293.62,-34C303.4845,-34 314.1181,-34 324.1818,-34"/>
<polygon fill="#000000" stroke="#000000" points="324.4068,-37.5001 334.4068,-34 324.4068,-30.5001 324.4068,-37.5001"/>
</g>
<!-- intent&#45;&gt;reducer -->
<g id="edge2" class="edge">
<title>intent&#45;&gt;reducer</title>
<path fill="none" stroke="#000000" d="M173.332,-88C181.2181,-88 190.1242,-88 199.0658,-88"/>
<polygon fill="#000000" stroke="#000000" points="199.1238,-91.5001 209.1237,-88 199.1237,-84.5001 199.1238,-91.5001"/>
</g>
<!-- view&#45;&gt;vnode -->
<g id="edge5" class="edge">
<title>view&#45;&gt;vnode</title>
<path fill="none" stroke="#000000" d="M173.332,-34C182.6918,-34 193.4885,-34 204.0759,-34"/>
<polygon fill="#000000" stroke="#000000" points="204.109,-37.5001 214.109,-34 204.109,-30.5001 204.109,-37.5001"/>
</g>
</g>
</svg>
