<?xml version="1.0" encoding="UTF-8" standalone="no"?>
<!DOCTYPE svg PUBLIC "-//W3C//DTD SVG 1.1//EN"
 "http://www.w3.org/Graphics/SVG/1.1/DTD/svg11.dtd">
<!-- Generated by graphviz version 2.40.1 (20161225.0304)
 -->
<!-- Title: %0 Pages: 1 -->
<svg width="543pt" height="155pt"
 viewBox="0.00 0.00 543.23 155.00" xmlns="http://www.w3.org/2000/svg" xmlns:xlink="http://www.w3.org/1999/xlink">
<g id="graph0" class="graph" transform="scale(1 1) rotate(0) translate(4 151)">
<title>%0</title>
<polygon fill="#ffffff" stroke="transparent" points="-4,4 -4,-151 539.2323,-151 539.2323,4 -4,4"/>
<g id="clust1" class="cluster">
<title>cluster_sources</title>
<polygon fill="#ffffff" stroke="#000000" points="8,-8 8,-85 91.1265,-85 91.1265,-8 8,-8"/>
<text text-anchor="middle" x="49.5633" y="-68.4" font-family="Times,serif" font-size="14.00" fill="#000000">sources</text>
</g>
<g id="clust2" class="cluster">
<title>cluster_component</title>
<polygon fill="#ffffff" stroke="#000000" points="111.1265,-8 111.1265,-139 424.1057,-139 424.1057,-8 111.1265,-8"/>
<text text-anchor="middle" x="267.6161" y="-122.4" font-family="Times,serif" font-size="14.00" fill="#000000">component</text>
</g>
<g id="clust6" class="cluster">
<title>cluster_sinks</title>
<polygon fill="#ffffff" stroke="#000000" points="444.1057,-62 444.1057,-139 527.2323,-139 527.2323,-62 444.1057,-62"/>
<text text-anchor="middle" x="485.669" y="-122.4" font-family="Times,serif" font-size="14.00" fill="#000000">sinks</text>
</g>
<!-- DOM -->
<g id="node1" class="node">
<title>DOM</title>
<ellipse fill="none" stroke="#000000" cx="49.5633" cy="-34" rx="33.6266" ry="18"/>
<text text-anchor="middle" x="49.5633" y="-29.8" font-family="Times,serif" font-size="14.00" fill="#000000">DOM</text>
</g>
<!-- intent -->
<g id="node5" class="node">
<title>intent</title>
<polygon fill="none" stroke="#000000" points="185.5892,-52 131.5892,-52 131.5892,-16 185.5892,-16 185.5892,-52"/>
<text text-anchor="middle" x="158.5892" y="-29.8" font-family="Times,serif" font-size="14.00" fill="#000000">intent</text>
</g>
<!-- DOM&#45;&gt;intent -->
<g id="edge1" class="edge">
<title>DOM&#45;&gt;intent</title>
<path fill="none" stroke="#000000" d="M83.1643,-34C95.2867,-34 109.0353,-34 121.4434,-34"/>
<polygon fill="#000000" stroke="#000000" points="121.4858,-37.5001 131.4858,-34 121.4857,-30.5001 121.4858,-37.5001"/>
</g>
<!-- state -->
<g id="node2" class="node">
<title>state</title>
<ellipse fill="none" stroke="#000000" cx="267.6132" cy="-88" rx="33.6228" ry="18"/>
<text text-anchor="middle" x="267.6132" y="-83.8" font-family="Times,serif" font-size="14.00" fill="#000000">state$</text>
</g>
<!-- view -->
<g id="node7" class="node">
<title>view</title>
<polygon fill="none" stroke="#000000" points="403.6402,-52 349.6402,-52 349.6402,-16 403.6402,-16 403.6402,-52"/>
<text text-anchor="middle" x="376.6402" y="-29.8" font-family="Times,serif" font-size="14.00" fill="#000000">view</text>
</g>
<!-- state&#45;&gt;view -->
<g id="edge5" class="edge">
<title>state&#45;&gt;view</title>
<path fill="none" stroke="#000000" d="M292.3531,-75.7466C306.5334,-68.7232 324.5909,-59.7795 340.3517,-51.9733"/>
<polygon fill="#000000" stroke="#000000" points="341.9117,-55.1065 349.3193,-47.5318 338.8048,-48.8338 341.9117,-55.1065"/>
</g>
<!-- actions -->
<g id="node3" class="node">
<title>actions</title>
<ellipse fill="none" stroke="#000000" cx="158.5892" cy="-88" rx="39.4254" ry="18"/>
<text text-anchor="middle" x="158.5892" y="-83.8" font-family="Times,serif" font-size="14.00" fill="#000000">action$</text>
</g>
<!-- model -->
<g id="node6" class="node">
<title>model</title>
<polygon fill="none" stroke="#000000" points="294.6132,-52 240.6132,-52 240.6132,-16 294.6132,-16 294.6132,-52"/>
<text text-anchor="middle" x="267.6132" y="-29.8" font-family="Times,serif" font-size="14.00" fill="#000000">model</text>
</g>
<!-- actions&#45;&gt;model -->
<g id="edge3" class="edge">
<title>actions&#45;&gt;model</title>
<path fill="none" stroke="#000000" d="M185.539,-74.6517C199.4292,-67.7718 216.5595,-59.2871 231.5708,-51.852"/>
<polygon fill="#000000" stroke="#000000" points="233.1881,-54.9568 240.5957,-47.3819 230.0811,-48.684 233.1881,-54.9568"/>
</g>
<!-- vnode -->
<g id="node4" class="node">
<title>vnode</title>
<ellipse fill="none" stroke="#000000" cx="376.6402" cy="-88" rx="39.4312" ry="18"/>
<text text-anchor="middle" x="376.6402" y="-83.8" font-family="Times,serif" font-size="14.00" fill="#000000">vnode$</text>
</g>
<!-- DOM2 -->
<g id="node8" class="node">
<title>DOM2</title>
<ellipse fill="none" stroke="#000000" cx="485.669" cy="-88" rx="33.6266" ry="18"/>
<text text-anchor="middle" x="485.669" y="-83.8" font-family="Times,serif" font-size="14.00" fill="#000000">DOM</text>
</g>
<!-- vnode&#45;&gt;DOM2 -->
<g id="edge7" class="edge">
<title>vnode&#45;&gt;DOM2</title>
<path fill="none" stroke="#000000" d="M416.3105,-88C424.6215,-88 433.4309,-88 441.8821,-88"/>
<polygon fill="#000000" stroke="#000000" points="441.9555,-91.5001 451.9555,-88 441.9555,-84.5001 441.9555,-91.5001"/>
</g>
<!-- intent&#45;&gt;actions -->
<g id="edge2" class="edge">
<title>intent&#45;&gt;actions</title>
<path fill="none" stroke="#000000" d="M158.5892,-52.1406C158.5892,-54.6226 158.5892,-57.1046 158.5892,-59.5865"/>
<polygon fill="#000000" stroke="#000000" points="155.0893,-59.7901 158.5892,-69.7902 162.0893,-59.7902 155.0893,-59.7901"/>
</g>
<!-- model&#45;&gt;state -->
<g id="edge4" class="edge">
<title>model&#45;&gt;state</title>
<path fill="none" stroke="#000000" d="M267.6132,-52.1406C267.6132,-54.6226 267.6132,-57.1046 267.6132,-59.5865"/>
<polygon fill="#000000" stroke="#000000" points="264.1133,-59.7901 267.6132,-69.7902 271.1133,-59.7902 264.1133,-59.7901"/>
</g>
<!-- view&#45;&gt;vnode -->
<g id="edge6" class="edge">
<title>view&#45;&gt;vnode</title>
<path fill="none" stroke="#000000" d="M376.6402,-52.1406C376.6402,-54.6226 376.6402,-57.1046 376.6402,-59.5865"/>
<polygon fill="#000000" stroke="#000000" points="373.1403,-59.7901 376.6402,-69.7902 380.1403,-59.7902 373.1403,-59.7901"/>
</g>
</g>
</svg>
