<?xml version="1.0" encoding="UTF-8" standalone="no"?>
<!DOCTYPE svg PUBLIC "-//W3C//DTD SVG 1.1//EN"
 "http://www.w3.org/Graphics/SVG/1.1/DTD/svg11.dtd">
<!-- Generated by graphviz version 2.40.1 (20161225.0304)
 -->
<!-- Title: %0 Pages: 1 -->
<svg width="315pt" height="44pt"
 viewBox="0.00 0.00 314.96 44.00" xmlns="http://www.w3.org/2000/svg" xmlns:xlink="http://www.w3.org/1999/xlink">
<g id="graph0" class="graph" transform="scale(1 1) rotate(0) translate(4 40)">
<title>%0</title>
<polygon fill="#ffffff" stroke="transparent" points="-4,4 -4,-40 310.9564,-40 310.9564,4 -4,4"/>
<!-- component -->
<g id="node1" class="node">
<title>component</title>
<polygon fill="none" stroke="#000000" points="181.4385,-36 103.0172,-36 103.0172,0 181.4385,0 181.4385,-36"/>
<text text-anchor="middle" x="142.2279" y="-13.8" font-family="Times,serif" font-size="14.00" fill="#000000">component</text>
</g>
<!-- reducer -->
<g id="node3" class="node">
<title>reducer</title>
<ellipse fill="none" stroke="#000000" cx="262.1447" cy="-18" rx="44.6241" ry="18"/>
<text text-anchor="middle" x="262.1447" y="-13.8" font-family="Times,serif" font-size="14.00" fill="#000000">reducer$</text>
</g>
<!-- component&#45;&gt;reducer -->
<g id="edge2" class="edge">
<title>component&#45;&gt;reducer</title>
<path fill="none" stroke="#000000" d="M181.4931,-18C189.5543,-18 198.1844,-18 206.6927,-18"/>
<polygon fill="#000000" stroke="#000000" points="206.9642,-21.5001 216.9642,-18 206.9641,-14.5001 206.9642,-21.5001"/>
</g>
<!-- state -->
<g id="node2" class="node">
<title>state</title>
<ellipse fill="none" stroke="#000000" cx="33.5613" cy="-18" rx="33.6228" ry="18"/>
<text text-anchor="middle" x="33.5613" y="-13.8" font-family="Times,serif" font-size="14.00" fill="#000000">state$</text>
</g>
<!-- state&#45;&gt;component -->
<g id="edge1" class="edge">
<title>state&#45;&gt;component</title>
<path fill="none" stroke="#000000" d="M67.3484,-18C75.3213,-18 83.9864,-18 92.4996,-18"/>
<polygon fill="#000000" stroke="#000000" points="92.7519,-21.5001 102.7518,-18 92.7518,-14.5001 92.7519,-21.5001"/>
</g>
</g>
</svg>
